<svg width="1200" height="630" viewBox="0 0 1200 630" fill="none" xmlns="http://www.w3.org/2000/svg">
  <defs>
    <linearGradient id="gradient" x1="0%" y1="0%" x2="100%" y2="100%">
      <stop offset="0%" style="stop-color:#3D5AFE;stop-opacity:1" />
      <stop offset="100%" style="stop-color:#F57C00;stop-opacity:1" />
    </linearGradient>
  </defs>
  
  <!-- Background -->
  <rect width="1200" height="630" fill="url(#gradient)"/>
  
  <!-- Background Pattern -->
  <circle cx="100" cy="100" r="80" fill="rgba(255,255,255,0.1)"/>
  <circle cx="1100" cy="530" r="120" fill="rgba(255,255,255,0.05)"/>
  <circle cx="600" cy="400" r="150" fill="rgba(255,255,255,0.08)"/>
  
  <!-- Cell Phone -->
  <rect x="200" y="200" width="120" height="200" rx="20" fill="white"/>
  <rect x="210" y="210" width="100" height="180" rx="10" fill="#333"/>
  <rect x="220" y="220" width="80" height="100" rx="5" fill="black"/>
  <circle cx="260" cy="340" r="15" fill="white"/>
  <rect x="245" y="355" width="30" height="4" rx="2" fill="white"/>
  
  <!-- Laptop -->
  <rect x="800" y="200" width="200" height="140" rx="10" fill="white"/>
  <rect x="820" y="220" width="160" height="100" rx="5" fill="#333"/>
  <rect x="830" y="230" width="140" height="80" rx="3" fill="black"/>
  <circle cx="900" cy="350" r="20" fill="white"/>
  <rect x="885" y="360" width="30" height="6" rx="3" fill="white"/>
  
  <!-- Tools -->
  <circle cx="300" cy="400" r="25" fill="white"/>
  <path d="M290 400L310 400L300 380L290 400Z" fill="white"/>
  <path d="M300 380L310 400L300 420L300 380Z" fill="white"/>
  
  <circle cx="900" cy="400" r="25" fill="white"/>
  <path d="M890 400L910 400L900 380L890 400Z" fill="white"/>
  <path d="M900 380L910 400L900 420L900 380Z" fill="white"/>
  
  <!-- Main Title -->
  <text x="600" y="150" font-family="Arial, sans-serif" font-size="80" font-weight="bold" fill="white" text-anchor="middle">WE FIX 4U</text>
  
  <!-- Subtitle -->
  <text x="600" y="200" font-family="Arial, sans-serif" font-size="30" font-weight="400" fill="white" text-anchor="middle">Professional Tech Repair Services</text>
  
  <!-- Services -->
  <text x="600" y="250" font-family="Arial, sans-serif" font-size="24" font-weight="400" fill="rgba(255,255,255,0.8)" text-anchor="middle">Phones • Laptops • Tablets</text>
  
  <!-- CTA Button -->
  <rect x="450" y="500" width="300" height="60" rx="30" fill="white"/>
  <text x="600" y="540" font-family="Arial, sans-serif" font-size="24" font-weight="bold" fill="#3D5AFE" text-anchor="middle">Get Free Quote</text>
</svg>
